<?xml version="1.0" encoding="UTF-8" ?>
<!DOCTYPE svg PUBLIC "-//W3C//DTD SVG 1.1//EN" "http://www.w3.org/Graphics/SVG/1.1/DTD/svg11.dtd">
<svg width="151pt" height="174pt" viewBox="0 0 151 174" version="1.1" xmlns="http://www.w3.org/2000/svg">
<g id="#0066adff">
<path fill="#0066ad" opacity="1.00" d=" M 0.00 0.00 L 151.00 0.00 L 151.00 174.00 L 0.00 174.00 L 0.00 0.00 M 37.71 24.71 C 23.14 33.39 13.12 48.30 8.20 64.31 C 2.55 82.11 3.74 101.87 11.21 118.95 C 18.08 134.79 30.86 147.75 46.13 155.64 C 60.50 163.12 77.02 164.85 93.00 164.60 C 107.32 164.56 121.69 163.04 135.57 159.39 C 139.54 148.68 143.00 137.78 146.80 127.01 C 143.29 128.26 140.12 130.27 136.71 131.75 C 124.88 137.29 112.05 141.01 98.94 141.30 C 86.96 141.33 74.44 137.84 65.74 129.25 C 54.30 118.14 50.06 101.54 50.22 86.01 C 50.12 72.11 51.97 57.09 60.91 45.87 C 67.75 37.15 79.18 33.46 89.96 33.63 C 102.97 33.97 116.01 37.85 126.74 45.30 C 126.84 34.91 125.80 24.56 125.51 14.19 C 118.35 13.32 111.15 12.81 103.96 12.24 C 81.37 9.39 57.40 12.85 37.71 24.71 Z" />
</g>
<g id="#ffffffff">
<path fill="#ffffff" opacity="1.00" d=" M 37.71 24.71 C 57.40 12.85 81.37 9.39 103.96 12.24 C 111.15 12.81 118.35 13.32 125.51 14.19 C 125.80 24.56 126.84 34.91 126.74 45.30 C 116.01 37.85 102.97 33.97 89.96 33.63 C 79.18 33.46 67.75 37.15 60.91 45.87 C 51.97 57.09 50.12 72.11 50.22 86.01 C 50.06 101.54 54.30 118.14 65.74 129.25 C 74.44 137.84 86.96 141.33 98.94 141.30 C 112.05 141.01 124.88 137.29 136.71 131.75 C 140.12 130.27 143.29 128.26 146.80 127.01 C 143.00 137.78 139.54 148.68 135.57 159.39 C 121.69 163.04 107.32 164.56 93.00 164.60 C 77.02 164.85 60.50 163.12 46.13 155.64 C 30.86 147.75 18.08 134.79 11.21 118.95 C 3.74 101.87 2.55 82.11 8.20 64.31 C 13.12 48.30 23.14 33.39 37.71 24.71 Z" />
</g>
</svg>
