<?xml version="1.0" encoding="UTF-8" ?>
<!DOCTYPE svg PUBLIC "-//W3C//DTD SVG 1.1//EN" "http://www.w3.org/Graphics/SVG/1.1/DTD/svg11.dtd">
<svg width="1177pt" height="270pt" viewBox="0 0 1177 270" version="1.1" xmlns="http://www.w3.org/2000/svg">
<g id="#0066adff">
<path fill="#0066ad" opacity="1.00" d=" M 0.00 0.00 L 1177.00 0.00 L 1177.00 12.68 C 1001.65 12.45 826.30 12.65 650.95 12.58 C 433.97 12.56 216.98 12.62 0.00 12.55 L 0.00 0.00 Z" />
<path fill="#0066ad" opacity="1.00" d=" M 0.00 31.22 C 392.33 31.43 784.67 31.20 1177.00 31.34 L 1177.00 238.71 C 1172.35 239.57 1167.62 239.12 1162.94 239.19 C 780.28 239.20 397.62 239.19 14.97 239.19 C 9.98 239.14 4.96 239.47 0.00 238.80 L 0.00 31.22 M 122.63 57.94 C 103.51 60.30 83.90 67.09 70.47 81.49 C 49.92 103.88 44.87 138.76 57.78 166.22 C 65.29 182.61 79.13 195.79 95.46 203.25 C 108.13 208.97 122.19 210.61 135.96 210.61 C 151.29 210.76 166.70 209.31 181.56 205.40 C 185.51 194.64 189.09 183.75 192.78 172.91 C 180.49 179.04 167.75 184.89 153.96 186.55 C 139.90 188.69 124.27 186.28 113.30 176.66 C 102.77 167.57 97.79 153.62 96.53 140.09 C 95.68 125.88 96.20 110.87 102.87 97.97 C 107.25 89.34 115.51 82.81 125.01 80.82 C 141.47 77.29 158.79 82.25 172.78 91.10 C 172.77 80.79 171.84 70.51 171.51 60.22 C 155.28 58.82 138.95 56.12 122.63 57.94 M 1011.48 68.43 C 999.16 77.58 993.26 94.18 996.45 109.11 C 998.09 119.07 1004.01 127.98 1011.95 134.08 C 1024.14 143.90 1039.51 148.22 1052.79 156.18 C 1058.39 159.54 1064.11 164.90 1063.74 171.99 C 1064.15 176.96 1061.10 181.65 1056.85 184.01 C 1049.96 188.08 1041.65 188.04 1033.92 187.51 C 1019.11 185.93 1005.23 179.51 993.28 170.80 C 995.72 181.40 998.19 191.98 1000.60 202.58 C 1015.32 208.29 1031.17 210.95 1046.94 210.58 C 1059.59 210.50 1072.66 208.38 1083.56 201.58 C 1094.58 195.10 1102.81 183.79 1104.78 171.07 C 1106.78 160.03 1104.74 148.01 1097.85 138.97 C 1089.25 127.08 1076.08 119.71 1062.82 114.14 C 1055.32 110.58 1046.68 108.42 1040.93 102.06 C 1036.62 97.44 1036.71 89.59 1041.14 85.09 C 1044.56 81.75 1049.34 80.18 1054.01 79.64 C 1066.34 78.63 1078.33 83.47 1088.59 89.94 C 1088.65 81.18 1088.76 72.43 1088.53 63.68 C 1076.47 59.49 1063.75 56.97 1050.95 57.27 C 1037.12 56.98 1022.77 60.14 1011.48 68.43 M 804.15 60.25 C 801.94 69.17 799.64 78.07 797.39 86.98 C 796.67 89.58 796.45 92.43 794.83 94.68 C 799.06 92.48 802.79 89.21 807.40 87.65 C 815.64 84.30 824.77 85.07 833.43 85.73 C 833.60 118.83 833.40 151.94 833.54 185.05 C 833.56 190.52 832.98 196.25 830.08 201.02 C 828.57 203.69 826.10 205.57 823.87 207.58 C 844.25 207.68 864.65 207.81 885.04 207.51 C 882.50 204.74 879.87 201.96 878.29 198.50 C 874.99 191.87 875.10 184.27 874.83 177.04 C 874.92 146.62 874.68 116.20 874.95 85.78 C 882.10 84.45 889.80 83.63 896.70 86.49 C 900.30 87.85 902.61 91.04 904.80 94.03 C 907.19 82.87 909.94 71.80 912.42 60.66 C 880.60 60.65 848.77 60.65 816.94 60.66 C 812.67 60.70 808.40 60.70 804.15 60.25 M 231.80 60.77 C 235.03 63.76 239.01 66.53 240.18 71.03 C 241.54 76.50 238.96 81.84 237.42 86.98 C 226.30 119.49 215.03 151.95 203.74 184.40 C 200.84 193.20 195.97 201.31 189.04 207.51 C 204.51 207.81 219.99 207.69 235.47 207.58 C 233.40 205.33 230.95 203.44 229.12 200.98 C 226.61 197.54 227.17 192.97 227.97 189.06 C 230.29 180.32 233.74 171.95 236.61 163.39 C 251.42 163.49 266.23 163.21 281.03 163.53 C 283.41 171.44 286.29 179.19 288.95 187.01 C 290.12 190.54 290.08 194.40 289.35 198.02 C 287.98 202.36 283.85 204.74 280.60 207.56 C 303.39 207.74 326.19 207.73 348.98 207.56 C 344.60 203.08 339.93 198.73 336.75 193.24 C 333.07 186.90 331.06 179.79 328.26 173.05 C 314.50 135.61 300.60 98.22 286.99 60.72 C 268.60 60.64 250.19 60.54 231.80 60.77 M 351.04 60.75 C 353.38 62.81 355.93 64.78 357.50 67.55 C 360.10 71.86 360.77 76.99 360.76 81.95 C 360.75 116.63 360.73 151.31 360.77 185.99 C 360.75 190.40 360.39 194.93 358.51 198.99 C 357.09 202.54 354.04 204.98 351.41 207.61 C 371.38 207.70 391.35 207.71 411.32 207.60 C 408.69 204.40 405.83 201.29 404.23 197.40 C 400.84 189.39 401.45 180.52 401.36 172.02 C 401.36 142.36 401.36 112.69 401.36 83.02 C 409.56 82.72 417.95 87.19 421.17 94.93 C 425.12 104.34 425.40 115.31 422.10 124.95 C 418.93 133.89 411.51 140.72 402.98 144.52 C 409.69 145.85 416.50 144.78 423.22 144.25 C 432.51 142.82 441.79 139.95 449.48 134.41 C 465.99 123.21 470.19 99.04 461.00 81.90 C 455.71 72.08 445.78 65.14 434.94 62.85 C 421.47 60.00 407.62 60.76 393.95 60.65 C 379.65 60.72 365.34 60.52 351.04 60.75 M 474.80 60.75 C 477.43 63.27 480.47 65.60 481.98 69.03 C 484.92 75.25 484.64 82.30 484.58 89.00 C 484.50 122.01 484.62 155.02 484.53 188.03 C 484.53 195.64 481.31 203.29 474.83 207.58 C 495.03 207.74 515.24 207.70 535.44 207.60 C 532.51 204.80 529.23 202.06 527.87 198.10 C 524.92 190.08 525.92 181.36 525.79 172.99 C 525.77 142.99 525.81 112.99 525.76 83.00 C 526.06 77.94 526.44 72.66 528.93 68.13 C 530.46 65.18 533.14 63.12 535.37 60.75 C 515.18 60.59 494.99 60.59 474.80 60.75 M 548.11 60.76 C 551.02 63.24 554.08 65.81 555.55 69.45 C 558.39 75.57 557.78 82.45 557.82 89.00 C 557.74 122.36 557.87 155.72 557.76 189.08 C 557.81 196.39 554.27 203.40 548.22 207.53 C 580.46 207.82 612.72 207.62 644.97 207.64 C 646.48 207.87 646.35 205.87 646.83 204.91 C 649.30 195.41 652.07 185.99 654.45 176.46 C 646.64 182.57 636.88 185.83 627.01 186.18 C 617.71 186.52 608.04 186.30 599.35 182.59 C 599.34 151.40 599.38 120.20 599.33 89.01 C 599.36 82.45 598.80 75.55 601.68 69.44 C 603.15 65.84 606.23 63.34 609.00 60.76 C 588.71 60.58 568.41 60.59 548.11 60.76 M 694.65 60.79 C 697.54 63.65 701.23 66.07 702.60 70.11 C 704.42 74.72 702.43 79.65 701.13 84.11 C 689.61 117.84 677.92 151.51 666.18 185.17 C 663.35 193.72 658.46 201.51 651.72 207.52 C 667.24 207.79 682.77 207.71 698.30 207.56 C 695.48 204.63 691.69 202.22 690.48 198.12 C 689.28 192.79 691.05 187.41 692.68 182.37 C 694.87 176.02 697.08 169.68 699.40 163.39 C 714.11 163.40 728.82 163.40 743.53 163.39 C 746.26 171.10 748.82 178.87 751.55 186.59 C 753.05 190.87 753.37 195.91 751.16 200.01 C 749.47 203.30 746.03 205.03 743.51 207.57 C 766.17 207.75 788.84 207.70 811.50 207.60 C 808.57 204.16 805.12 201.20 802.44 197.55 C 798.79 192.96 796.48 187.51 794.46 182.05 C 779.19 141.68 764.74 100.99 749.47 60.61 C 731.20 60.81 712.92 60.44 694.65 60.79 M 920.74 60.74 C 923.47 63.23 926.54 65.60 928.05 69.09 C 931.21 75.58 930.53 82.96 930.57 89.95 C 930.51 122.62 930.58 155.30 930.54 187.97 C 930.67 195.61 927.32 203.25 920.89 207.58 C 941.06 207.73 961.24 207.70 981.41 207.60 C 978.78 204.89 975.62 202.46 974.23 198.83 C 971.35 191.95 971.81 184.31 971.83 177.02 C 971.84 145.67 971.85 114.32 971.82 82.97 C 972.07 77.92 972.50 72.65 974.98 68.13 C 976.51 65.18 979.15 63.09 981.44 60.77 C 961.21 60.56 940.97 60.62 920.74 60.74 M 1124.40 64.58 C 1115.07 66.27 1108.01 75.46 1108.67 84.91 C 1108.99 94.87 1117.79 104.10 1127.98 103.73 C 1138.93 104.37 1148.91 93.98 1147.78 83.05 C 1147.93 71.38 1135.73 61.84 1124.40 64.58 Z" />
<path fill="#0066ad" opacity="1.00" d=" M 1122.61 67.85 C 1132.04 64.08 1143.48 71.01 1145.03 80.92 C 1147.42 91.75 1136.97 102.79 1126.02 100.92 C 1118.13 100.05 1111.82 92.82 1111.49 84.99 C 1110.87 77.63 1115.69 70.34 1122.61 67.85 M 1120.41 71.72 C 1120.25 79.67 1120.38 87.63 1120.33 95.59 C 1121.40 95.58 1122.48 95.58 1123.58 95.58 C 1123.56 92.10 1123.55 88.62 1123.56 85.14 C 1125.34 85.18 1127.13 85.22 1128.93 85.29 C 1130.81 88.78 1132.88 92.17 1134.89 95.59 C 1135.89 95.57 1137.90 95.52 1138.91 95.50 C 1136.63 92.05 1134.38 88.59 1132.30 85.02 C 1134.22 84.58 1136.54 84.41 1137.86 82.70 C 1140.56 79.64 1139.68 73.60 1135.39 72.50 C 1130.52 71.14 1125.39 71.99 1120.41 71.72 Z" />
<path fill="#0066ad" opacity="1.00" d=" M 1123.56 74.48 C 1127.55 74.52 1131.76 73.91 1135.50 75.71 C 1135.54 77.64 1136.50 80.45 1134.19 81.46 C 1130.92 83.10 1127.07 82.11 1123.57 82.36 C 1123.56 79.73 1123.55 77.11 1123.56 74.48 Z" />
<path fill="#0066ad" opacity="1.00" d=" M 257.88 98.80 C 263.48 113.22 268.03 128.03 273.53 142.49 C 263.41 142.61 253.29 142.54 243.17 142.53 C 248.03 127.94 252.86 113.34 257.88 98.80 Z" />
<path fill="#0066ad" opacity="1.00" d=" M 720.76 98.79 C 725.94 113.34 731.13 127.90 736.06 142.54 C 726.04 142.56 716.02 142.55 706.00 142.55 C 710.74 127.90 715.53 113.26 720.76 98.79 Z" />
<path fill="#0066ad" opacity="1.00" d=" M 0.00 257.70 C 392.33 257.69 784.67 257.68 1177.00 257.71 L 1177.00 270.00 L 0.00 270.00 L 0.00 257.70 Z" />
</g>
<g id="#ffffffff">
<path fill="#ffffff" opacity="1.00" d=" M 0.00 12.55 C 216.98 12.62 433.97 12.56 650.95 12.58 C 826.30 12.65 1001.65 12.45 1177.00 12.68 L 1177.00 31.34 C 784.67 31.20 392.33 31.43 0.00 31.22 L 0.00 12.55 Z" />
<path fill="#ffffff" opacity="1.00" d=" M 122.63 57.94 C 138.95 56.12 155.28 58.82 171.51 60.22 C 171.84 70.51 172.77 80.79 172.78 91.10 C 158.79 82.25 141.47 77.29 125.01 80.82 C 115.51 82.81 107.25 89.34 102.87 97.97 C 96.20 110.87 95.68 125.88 96.53 140.09 C 97.79 153.62 102.77 167.57 113.30 176.66 C 124.27 186.28 139.90 188.69 153.96 186.55 C 167.75 184.89 180.49 179.04 192.78 172.91 C 189.09 183.75 185.51 194.64 181.56 205.40 C 166.70 209.31 151.29 210.76 135.96 210.61 C 122.19 210.61 108.13 208.97 95.46 203.25 C 79.13 195.79 65.29 182.61 57.78 166.22 C 44.87 138.76 49.92 103.88 70.47 81.49 C 83.90 67.09 103.51 60.30 122.63 57.94 Z" />
<path fill="#ffffff" opacity="1.00" d=" M 1011.48 68.43 C 1022.77 60.14 1037.12 56.98 1050.95 57.27 C 1063.75 56.97 1076.47 59.49 1088.53 63.68 C 1088.76 72.43 1088.65 81.18 1088.59 89.94 C 1078.33 83.47 1066.34 78.63 1054.01 79.64 C 1049.34 80.18 1044.56 81.75 1041.14 85.09 C 1036.71 89.59 1036.62 97.44 1040.93 102.06 C 1046.68 108.42 1055.32 110.58 1062.82 114.14 C 1076.08 119.71 1089.25 127.08 1097.85 138.97 C 1104.74 148.01 1106.78 160.03 1104.78 171.07 C 1102.81 183.79 1094.58 195.10 1083.56 201.58 C 1072.66 208.38 1059.59 210.50 1046.94 210.58 C 1031.17 210.95 1015.32 208.29 1000.60 202.58 C 998.19 191.98 995.72 181.40 993.28 170.80 C 1005.23 179.51 1019.11 185.93 1033.92 187.51 C 1041.65 188.04 1049.96 188.08 1056.85 184.01 C 1061.10 181.65 1064.15 176.96 1063.74 171.99 C 1064.11 164.90 1058.39 159.54 1052.79 156.18 C 1039.51 148.22 1024.14 143.90 1011.95 134.08 C 1004.01 127.98 998.09 119.07 996.45 109.11 C 993.26 94.18 999.16 77.58 1011.48 68.43 Z" />
<path fill="#ffffff" opacity="1.00" d=" M 804.15 60.25 C 808.40 60.70 812.67 60.70 816.94 60.66 C 848.77 60.65 880.60 60.65 912.42 60.66 C 909.94 71.80 907.19 82.87 904.80 94.03 C 902.61 91.04 900.30 87.85 896.70 86.49 C 889.80 83.63 882.10 84.45 874.95 85.78 C 874.68 116.20 874.92 146.62 874.83 177.04 C 875.10 184.27 874.99 191.87 878.29 198.50 C 879.87 201.96 882.50 204.74 885.04 207.51 C 864.65 207.81 844.25 207.68 823.87 207.58 C 826.10 205.57 828.57 203.69 830.08 201.02 C 832.98 196.25 833.56 190.52 833.54 185.05 C 833.40 151.94 833.60 118.83 833.43 85.73 C 824.77 85.07 815.64 84.30 807.40 87.65 C 802.79 89.21 799.06 92.48 794.83 94.68 C 796.45 92.43 796.67 89.58 797.39 86.98 C 799.64 78.07 801.94 69.17 804.15 60.25 Z" />
<path fill="#ffffff" opacity="1.00" d=" M 231.80 60.77 C 250.19 60.54 268.60 60.64 286.99 60.72 C 300.60 98.22 314.50 135.61 328.26 173.05 C 331.06 179.79 333.07 186.90 336.75 193.24 C 339.93 198.73 344.60 203.08 348.98 207.56 C 326.19 207.73 303.39 207.74 280.60 207.56 C 283.85 204.74 287.98 202.36 289.35 198.02 C 290.08 194.40 290.12 190.54 288.95 187.01 C 286.29 179.19 283.41 171.44 281.03 163.53 C 266.23 163.21 251.42 163.49 236.61 163.39 C 233.74 171.95 230.29 180.32 227.97 189.06 C 227.17 192.97 226.61 197.54 229.12 200.98 C 230.95 203.44 233.40 205.33 235.47 207.58 C 219.99 207.69 204.51 207.81 189.04 207.51 C 195.97 201.31 200.84 193.20 203.74 184.40 C 215.03 151.95 226.30 119.49 237.42 86.98 C 238.96 81.84 241.54 76.50 240.18 71.03 C 239.01 66.53 235.03 63.76 231.80 60.77 M 257.88 98.80 C 252.86 113.34 248.03 127.94 243.17 142.53 C 253.29 142.54 263.41 142.61 273.53 142.49 C 268.03 128.03 263.48 113.22 257.88 98.80 Z" />
<path fill="#ffffff" opacity="1.00" d=" M 351.04 60.75 C 365.34 60.52 379.65 60.72 393.95 60.65 C 407.62 60.76 421.47 60.00 434.94 62.85 C 445.78 65.14 455.71 72.08 461.00 81.90 C 470.19 99.04 465.99 123.21 449.48 134.41 C 441.79 139.95 432.51 142.82 423.22 144.25 C 416.50 144.78 409.69 145.85 402.98 144.52 C 411.51 140.72 418.93 133.89 422.10 124.95 C 425.40 115.31 425.12 104.34 421.17 94.93 C 417.95 87.19 409.56 82.72 401.36 83.02 C 401.36 112.69 401.36 142.36 401.36 172.02 C 401.45 180.52 400.84 189.39 404.23 197.40 C 405.83 201.29 408.69 204.40 411.32 207.60 C 391.35 207.71 371.38 207.70 351.41 207.61 C 354.04 204.98 357.09 202.54 358.51 198.99 C 360.39 194.93 360.75 190.40 360.77 185.99 C 360.73 151.31 360.75 116.63 360.76 81.95 C 360.77 76.99 360.10 71.86 357.50 67.55 C 355.93 64.78 353.38 62.81 351.04 60.75 Z" />
<path fill="#ffffff" opacity="1.00" d=" M 474.80 60.75 C 494.99 60.59 515.18 60.59 535.37 60.75 C 533.14 63.12 530.46 65.18 528.93 68.13 C 526.44 72.66 526.06 77.94 525.76 83.00 C 525.81 112.99 525.77 142.99 525.79 172.99 C 525.92 181.36 524.92 190.08 527.87 198.10 C 529.23 202.06 532.51 204.80 535.44 207.60 C 515.24 207.70 495.03 207.74 474.83 207.58 C 481.31 203.29 484.53 195.64 484.53 188.03 C 484.62 155.02 484.50 122.01 484.58 89.00 C 484.64 82.30 484.92 75.25 481.98 69.03 C 480.47 65.60 477.43 63.27 474.80 60.75 Z" />
<path fill="#ffffff" opacity="1.00" d=" M 548.11 60.76 C 568.41 60.59 588.71 60.58 609.00 60.76 C 606.23 63.34 603.15 65.84 601.68 69.44 C 598.80 75.55 599.36 82.45 599.33 89.01 C 599.38 120.20 599.34 151.40 599.35 182.59 C 608.04 186.30 617.71 186.52 627.01 186.18 C 636.88 185.83 646.64 182.57 654.45 176.46 C 652.07 185.99 649.30 195.41 646.83 204.91 C 646.35 205.87 646.48 207.87 644.97 207.64 C 612.72 207.62 580.46 207.82 548.22 207.53 C 554.27 203.40 557.81 196.39 557.76 189.08 C 557.87 155.72 557.74 122.36 557.82 89.00 C 557.78 82.45 558.39 75.57 555.55 69.45 C 554.08 65.81 551.02 63.24 548.11 60.76 Z" />
<path fill="#ffffff" opacity="1.00" d=" M 694.65 60.79 C 712.92 60.44 731.20 60.81 749.47 60.61 C 764.74 100.99 779.19 141.68 794.46 182.05 C 796.48 187.51 798.79 192.96 802.44 197.55 C 805.12 201.20 808.57 204.16 811.50 207.60 C 788.84 207.70 766.17 207.75 743.51 207.57 C 746.03 205.03 749.47 203.30 751.16 200.01 C 753.37 195.91 753.05 190.87 751.55 186.59 C 748.82 178.87 746.26 171.10 743.53 163.39 C 728.82 163.40 714.11 163.40 699.40 163.39 C 697.08 169.68 694.87 176.02 692.68 182.37 C 691.05 187.41 689.28 192.79 690.48 198.12 C 691.69 202.22 695.48 204.63 698.30 207.56 C 682.77 207.71 667.24 207.79 651.72 207.52 C 658.46 201.51 663.35 193.72 666.18 185.17 C 677.92 151.51 689.61 117.84 701.13 84.11 C 702.43 79.65 704.42 74.72 702.60 70.11 C 701.23 66.07 697.54 63.65 694.65 60.79 M 720.76 98.79 C 715.53 113.26 710.74 127.90 706.00 142.55 C 716.02 142.55 726.04 142.56 736.06 142.54 C 731.13 127.90 725.94 113.34 720.76 98.79 Z" />
<path fill="#ffffff" opacity="1.00" d=" M 920.74 60.74 C 940.97 60.62 961.21 60.56 981.44 60.77 C 979.15 63.09 976.51 65.18 974.98 68.13 C 972.50 72.65 972.07 77.92 971.82 82.97 C 971.85 114.32 971.84 145.67 971.83 177.02 C 971.81 184.31 971.35 191.95 974.23 198.83 C 975.62 202.46 978.78 204.89 981.41 207.60 C 961.24 207.70 941.06 207.73 920.89 207.58 C 927.32 203.25 930.67 195.61 930.54 187.97 C 930.58 155.30 930.51 122.62 930.57 89.95 C 930.53 82.96 931.21 75.58 928.05 69.09 C 926.54 65.60 923.47 63.23 920.74 60.74 Z" />
<path fill="#ffffff" opacity="1.00" d=" M 1124.40 64.58 C 1135.73 61.84 1147.93 71.38 1147.78 83.05 C 1148.91 93.98 1138.93 104.37 1127.98 103.73 C 1117.79 104.10 1108.99 94.87 1108.67 84.91 C 1108.01 75.46 1115.07 66.27 1124.40 64.58 M 1122.61 67.85 C 1115.69 70.34 1110.87 77.63 1111.49 84.99 C 1111.82 92.82 1118.13 100.05 1126.02 100.92 C 1136.97 102.79 1147.42 91.75 1145.03 80.92 C 1143.48 71.01 1132.04 64.08 1122.61 67.85 Z" />
<path fill="#ffffff" opacity="1.00" d=" M 1120.41 71.72 C 1125.39 71.99 1130.52 71.14 1135.39 72.50 C 1139.68 73.60 1140.56 79.64 1137.86 82.70 C 1136.54 84.41 1134.22 84.58 1132.30 85.02 C 1134.38 88.59 1136.63 92.05 1138.91 95.50 C 1137.90 95.52 1135.89 95.57 1134.89 95.59 C 1132.88 92.17 1130.81 88.78 1128.93 85.29 C 1127.13 85.22 1125.34 85.18 1123.56 85.14 C 1123.55 88.62 1123.56 92.10 1123.58 95.58 C 1122.48 95.58 1121.40 95.58 1120.33 95.59 C 1120.38 87.63 1120.25 79.67 1120.41 71.72 M 1123.56 74.48 C 1123.55 77.11 1123.56 79.73 1123.57 82.36 C 1127.07 82.11 1130.92 83.10 1134.19 81.46 C 1136.50 80.45 1135.54 77.64 1135.50 75.71 C 1131.76 73.91 1127.55 74.52 1123.56 74.48 Z" />
<path fill="#ffffff" opacity="1.00" d=" M 0.00 238.80 C 4.96 239.47 9.98 239.14 14.97 239.19 C 397.62 239.19 780.28 239.20 1162.94 239.19 C 1167.62 239.12 1172.35 239.57 1177.00 238.71 L 1177.00 257.71 C 784.67 257.68 392.33 257.69 0.00 257.70 L 0.00 238.80 Z" />
</g>
</svg>
